<svg width="1000" height="1000" viewBox="0 0 1000 1000" fill="none" xmlns="http://www.w3.org/2000/svg">
<path d="M500 1000C776.142 1000 1000 776.142 1000 500C1000 223.858 776.142 0 500 0C223.858 0 0 223.858 0 500C0 776.142 223.858 1000 500 1000Z" fill="#7B2BF9"/>
<path d="M858.6 423.8C844.2 354.8 810 291.6 759 240.6C689.6 171.2 597.4 133 499.2 133C401 133 308.8 171 239.4 240.4C222.4 257.4 207.6 275.6 194.6 294.8C190.8 300 187.2 305.4 184.2 311.2C150.2 367.8 132 432.4 132 500.2C132 598.4 170.2 690.6 239.6 760C309 829.4 401.2 867.6 499.4 867.6C597.6 867.6 689.8 829.4 759.2 760C791.8 727.4 817.8 689.4 836 648.4C838.2 644 840 639.2 841.8 634.4C858.4 592.4 867 547 867 500.4C867 475.8 864.6 452.4 859.8 428.8C859.6 427.6 858.8 424.6 858.6 423.8ZM731.2 256C733.2 258 735.4 260 737.6 262.2C770 294.6 795.2 332.6 811.8 373.8C813.4 377.8 810 382.4 805.4 381.6C795.8 379.8 784.8 379.2 772.8 379.4C764.4 379.6 757 373.6 755.6 365.6C749 328.8 739.4 295 727.4 265.4C726.8 263.8 726 262.2 725.4 260.2C723.8 256.4 728.4 253 731.2 256ZM766.2 471.4C766.2 467.6 771 465.8 773.4 469C776 472.8 778.8 476.8 781.4 480.6C784.8 485.8 788 491 790.8 496.2C792.6 499.4 792.2 503.4 789.8 506.2C786 510.4 781.6 515 777 519.6C775.4 521.2 773.6 523 771.8 524.8C769.6 526.8 765.8 525.2 766 522.4C766.2 516.8 766.4 511.4 766.4 505.6C766.6 493.8 766.6 482.6 766.2 471.4ZM303.6 225.8C360.4 185.2 428 163.4 499.2 163.4C518 163.4 536.6 165 554.8 167.8C559.6 168.6 561.4 174.8 557.4 177.8C539.8 191.6 523.6 212 509 238.4C505.6 245 498 248 490.8 246C442.8 232.6 395.6 226.2 352 227.6C335.8 228.2 320.8 229.8 306.4 232.4C302.4 233.4 300.4 228.2 303.6 225.8ZM255.6 729.2C248.4 716 257.6 685 304.2 637.8C309 633 308.6 625 303.2 620.6C301.4 619.2 299.6 617.8 297.6 616.2C293 612.6 286.2 612.8 282 617C281 618 280.4 618.6 280.2 618.8C257 642.6 240.6 664.8 231.6 684.8C229 690.6 221.2 691.2 217.8 685.8C181.6 631.4 162.2 567.4 162.2 500.4C162.2 476.6 164.6 452.8 169.6 430C170.4 426.6 175.2 426.4 176.4 429.8C183.4 452.8 194.8 476.8 210.4 500.8C231.6 533.2 259.4 564.4 292.6 593.2C303.8 603 315.8 612.4 328.4 621.6C353.8 640.2 381 657.2 410.2 672.2C423 679 435.8 685.2 448.6 691.2C455.8 694.4 464 694.6 471.2 691.8C477.4 689.4 483.4 687 489.6 684.4C496.4 681.6 500 674.4 498.2 667.2C498 666.4 497.8 665.6 497.8 665.2C487.6 622.6 482 574.4 481.2 524.2C481.2 523.6 481.2 512.2 481.2 500.4C481.2 488.6 481.6 483.2 482 474.6C485 413.8 495.4 356.8 511.8 308.6C513.2 304.2 511 299.4 506.4 297.8C502.2 296.4 497.8 295 493.4 293.6C489.2 292.2 484.4 294.6 482.8 299C465 351.2 454 413 451.2 478.4C450.8 486.8 446.4 494.4 439.2 498.6C400.4 521.6 365 546 334 570.4C327.6 575.6 318.4 575.2 312.2 570C281.4 543.2 255.4 514.2 235.8 484C197.2 424.8 188 369.2 210 327L210.2 326.8C213 322.2 216 317.6 219 313.2C244.2 280 291 260.6 353.2 258.4C357 258.2 361.2 258.2 365 258.2C403.2 258.2 444 264.6 485.6 276.6C486.4 276.8 492.4 278.6 493.6 279C504.2 282.4 522.2 288.6 524.6 289.4C525.6 289.8 531.2 292 532 292.2C552.4 300.2 572.6 309.2 592.6 319.6C631.4 339.8 666.8 363.4 698 389.4C639 402.8 570.4 429 501.4 464C498.2 465.6 496 468.8 495.8 472.4C495.6 476.6 495.2 485.2 495 492.2C494.8 496.4 499.4 499.4 503.2 497.4C571.6 461.4 639.8 434.8 698.4 420.4C709.4 417.8 716.4 407.4 715 396.2C714 388.4 712.8 380.6 711.4 373.2C709.8 363.8 704.4 355.2 697 349.6C669.6 328.8 639.4 309.6 607 292.6C585.2 281.2 563.2 271.4 540.8 262.8C536.2 261 534 255.4 536.6 251C559.4 210.2 586.6 187.4 613.2 187.4C613.4 187.4 613.8 187.4 614 187.4C645.2 188 676.2 220.4 699.4 276.6C711 305 720 337.8 726.4 373.4C728.2 383.4 729.6 393.6 730.8 404C731.4 409.4 732.4 417.6 733 421.2C735.6 448.2 736.6 476.4 736.2 505C735.8 523.2 735 541.2 733.4 558.6C691.6 592.2 640 626 583.2 656C567.8 664 552.4 671.8 537.2 679C534 680.6 520.8 686.4 520 686.8C505.6 693.4 491.4 699.2 477.2 704.8C476.4 705.2 460.4 711.2 459.4 711.6C458.2 712 450 715 449 715.4C418.4 726.2 389 734.4 362.2 739.6C294.4 752.6 262.6 742.6 255.6 729.2ZM347.8 598.4C377.4 574.4 412.2 550 450.4 527.2C451.2 576 456.6 623 466.2 665.2C452.2 659 438 652.6 424 645.2C396.8 631.2 371.2 615.4 347.8 598.4ZM542.6 834.4C528.4 836.2 513.8 837.2 499.2 837.2C433.6 837.2 371 818.6 317.4 784C313.8 781.6 315.4 775.8 319.6 775.6C320.4 775.6 321.4 775.6 322 775.4C335.6 774.6 350.6 772.6 366.8 769.4C401.2 762.6 439.6 751.4 479.8 736C483.4 734.6 487.4 736.4 489 740C504.6 778 523.6 806.6 545.4 824.8C549.2 828 547.4 833.8 542.6 834.4ZM685.2 744.4C661.2 791.8 631.6 818.2 602.8 817.6C571.6 817 540.6 784.6 517.4 728.4C516 725 517.6 720.8 521 719.2C521.2 719 521.4 719 521.8 718.8C523.2 718.2 525 718 526.6 718.4C569.6 730.4 612.2 736.8 652 736.8C656.2 736.8 660.6 736.8 664.8 736.6C669.6 736.4 674.6 736.2 679.4 735.8C684 735.8 687.2 740.4 685.2 744.4ZM695.6 703.6C685.6 705 675 706 664 706.4C637 707.4 608.4 705 579.2 699.6C575.6 699 575 694 578.2 692.4C584.6 689.2 591 685.8 597.4 682.4C642.2 658.6 684.2 632.6 720.8 606C723.4 604 727.4 606.4 726.8 609.6C721.6 640.2 714.8 669 705.8 695C704 699.8 700.2 703 695.6 703.6ZM745.4 730.4C743 733 740.2 735.8 737.6 738.4C733.2 742.8 728.2 747.4 723.6 751.6C720.6 754.2 716 751 717.6 747.4C718 746.4 718.6 745.4 719 744.2C721 739.8 722.8 735.2 725 730.6C725.4 729.6 726.4 728.8 727.4 728.4C732 727.2 736.8 725.8 741.2 724.4C745.2 723.2 748 727.8 745.4 730.4ZM813 623.6C811.6 627 810.4 630.4 808.8 633.8C808.4 634.4 806.4 638.6 806.2 639.2C795 659.8 776.6 676 752.6 687.4C747 690 741 685 742.6 679C751 649.4 757 617.4 761.2 583.6C762 577.2 765 571.6 769.8 567.4C780 558.6 789.6 549.6 798.4 540.8C802.6 536.6 810 538.4 811.8 544.2C820.4 573.2 821 600.2 813 623.6ZM819.8 465.8C817.4 470.2 810.8 470.4 808 466.2C807.6 465.6 807.2 464.8 806.8 464.2C796.8 448.6 785.2 433.6 772.4 418.8C769.2 415.2 771.8 409.6 776.6 409.4H776.8C807 409.4 822.8 417 827.6 426C831.4 433.6 830.2 447 819.8 465.8ZM836.2 510.2C836.2 512.4 833 513 832.2 511C831.8 510.2 831.4 509.2 831 508.4C830.2 506.8 830.4 504.8 831.6 503.2C831.8 503 832.2 502.4 832.8 501.6C834.2 499.8 836.4 500 836.4 502C836.2 504.8 836.2 507.4 836.2 510.2Z" fill="white"/>
</svg>
